<svg width="512" height="512" viewBox="0 0 512 512" fill="none" xmlns="http://www.w3.org/2000/svg">
  <!-- Warm Off-white Background -->
  <rect width="512" height="512" rx="120" fill="#FBFBFB"/>
  
  <!-- Subtle Gradient Background Shape -->
  <rect x="64" y="64" width="384" height="384" rx="96" fill="url(#bg_gradient)" opacity="0.1"/>

  <!-- Bowl (Coral) -->
  <path d="M128 256C128 326.69 185.31 384 256 384C326.69 384 384 326.69 384 256H128Z" fill="#FF6F3C"/>
  
  <!-- Sprout Stem -->
  <path d="M256 256V160" stroke="#2DD4BF" stroke-width="24" stroke-linecap="round"/>
  
  <!-- Left Leaf -->
  <path d="M256 192C216 192 192 144 192 144C192 144 240 120 256 160" fill="#2DD4BF"/>
  
  <!-- Right Leaf -->
  <path d="M256 192C296 192 320 144 320 144C320 144 272 120 256 160" fill="#2DD4BF"/>
  
  <defs>
    <linearGradient id="bg_gradient" x1="64" y1="64" x2="448" y2="448" gradientUnits="userSpaceOnUse">
      <stop stop-color="#FF6F3C"/>
      <stop offset="1" stop-color="#2DD4BF"/>
    </linearGradient>
  </defs>
</svg>
